<svg width="140" height="140" viewBox="0 0 140 140" fill="none" xmlns="http://www.w3.org/2000/svg">
<rect x="17.855" y="76.1122" width="13.7929" height="43.898" stroke="#2664EB"/>
<rect x="47.4409" y="61.1463" width="13.7929" height="58.8639" stroke="#2664EB"/>
<rect x="77.0266" y="46.1803" width="13.7929" height="73.8299" stroke="#2664EB"/>
<rect x="106.612" y="31.2143" width="13.7929" height="88.7959" stroke="#2664EB"/>
<rect x="7.5" y="120.262" width="124" height="4.2381" stroke="#2664EB"/>
<path d="M29.1893 78.6055V93.1973" stroke="#2664EB"/>
<path d="M29.1893 110.034V117.517" stroke="#2664EB"/>
<path d="M58.7751 110.034V117.517" stroke="#2664EB"/>
<path d="M88.361 110.034V117.517" stroke="#2664EB"/>
<path d="M117.947 110.034V117.517" stroke="#2664EB"/>
<path d="M58.7751 63.6394V78.2313" stroke="#2664EB"/>
<path d="M88.361 48.6735V63.2653" stroke="#2664EB"/>
<path d="M117.947 33.7075V48.2993" stroke="#2664EB"/>
<path d="M102.509 19.9187L103.251 20.3523L102.506 20.7879L34.0966 60.746C33.8064 60.9156 33.7033 61.2938 33.8741 61.5931C34.0448 61.8924 34.4202 61.9912 34.7104 61.8217L103.119 21.8635L103.865 21.4279L103.865 22.2953C103.865 22.3315 103.864 22.3679 103.863 22.4045L103.862 22.4382L103.856 22.4715L103.256 25.9157C103.258 26.3835 103.76 26.6735 104.158 26.4413C104.335 26.3377 104.449 26.1488 104.457 25.9396L104.458 25.9154L104.461 25.8914L105.12 21.0319C105.138 20.3752 104.789 19.7639 104.218 19.4509L99.7286 17.5983L99.7065 17.5892L99.6853 17.5779C99.5021 17.4805 99.2836 17.4856 99.1063 17.5891C98.7087 17.8214 98.7056 18.4069 99.105 18.6426L102.353 19.8388L102.385 19.8504L102.414 19.8661C102.446 19.8831 102.478 19.9006 102.509 19.9187Z" stroke="#2664EB"/>
</svg>
