<svg width="140" height="140" viewBox="0 0 140 140" fill="none" xmlns="http://www.w3.org/2000/svg">
<path d="M89.0551 57.9815L89.2065 58.3579L89.606 58.2873C93.23 57.6465 97.0601 57.8036 100.843 59.3584C104.626 60.9129 108.399 63.8801 111.885 68.9206L112.034 69.1362H112.296C123.763 69.1362 133.056 78.3976 133.056 89.8181C133.056 101.239 123.763 110.5 112.296 110.5H27.2593C15.7925 110.5 6.5 101.239 6.5 89.8181C6.5 78.3976 15.7925 69.1362 27.2593 69.1362H27.5111L27.661 68.9339C30.9932 64.4371 34.6634 61.7751 38.3881 60.37C42.1156 58.9638 45.9293 58.8046 49.5624 59.363L49.9768 59.4267L50.1117 59.0298C52.8885 50.8654 60.6442 44.9889 69.7778 44.9889C78.5153 44.9889 85.9921 50.3668 89.0551 57.9815Z" stroke="#2664eb"/>
<path d="M31.5111 71.8222C33.8732 67.9952 40.8247 61.1763 49.7333 64.5162" stroke="#2664eb" stroke-linecap="round"/>
<path d="M112.6 72.7333C118.424 73.8421 129.413 79.5855 126.776 93.6889" stroke="#2664eb" stroke-linecap="round"/>
<path d="M24.8833 56.1265L25.6334 56.5597V55.6935V30.3672C25.6334 29.8881 26.0216 29.5 26.5001 29.5C26.9786 29.5 27.3667 29.8881 27.3667 30.3672V55.6935V56.5597L28.1168 56.1265C28.1538 56.1051 28.1904 56.083 28.2268 56.06L28.2553 56.042L28.2811 56.0203L31.5505 53.2771C32.1146 52.9462 32.8334 53.352 32.8334 54.0145C32.8334 54.3075 32.6832 54.5799 32.4357 54.7363L32.4153 54.7492L32.3963 54.764L27.6732 58.4288C26.9542 58.8729 26.046 58.8729 25.327 58.4288L20.6039 54.764L20.5848 54.7492L20.5644 54.7363C20.3169 54.5799 20.1667 54.3075 20.1667 54.0145C20.1667 53.352 20.8856 52.9462 21.4497 53.2771L24.7191 56.0203L24.7449 56.042L24.7734 56.06C24.8098 56.083 24.8464 56.1051 24.8833 56.1265Z" stroke="#2664eb"/>
<path d="M11.2166 32.1355L11.9667 31.7023V32.5684V57.8947C11.9667 58.3739 12.3548 58.7619 12.8333 58.7619C13.3118 58.7619 13.7 58.3739 13.7 57.8947V32.5684V31.7023L14.4501 32.1355C14.487 32.1568 14.5237 32.1789 14.5601 32.2019L14.5885 32.2199L14.6143 32.2416L17.8837 34.9849C18.4478 35.3157 19.1667 34.91 19.1667 34.2474C19.1667 33.9544 19.0165 33.682 18.769 33.5256L18.7486 33.5127L18.7295 33.4979L14.0064 29.8331C13.2874 29.389 12.3793 29.389 11.6603 29.8331L6.93713 33.4979L6.91807 33.5127L6.89767 33.5256C6.65017 33.682 6.5 33.9544 6.5 34.2474C6.5 34.91 7.21883 35.3157 7.78295 34.9849L11.0524 32.2416L11.0781 32.2199L11.1066 32.2019C11.143 32.1789 11.1796 32.1568 11.2166 32.1355Z" stroke="#2664eb"/>
</svg>
