<svg width="140" height="140" viewBox="0 0 140 140" fill="none" xmlns="http://www.w3.org/2000/svg">
<path d="M30.1608 44.826C30.7416 41.4496 33.9993 32.2314 35.8564 29.3694C35.9025 29.2978 35.9621 29.2362 36.0317 29.188C36.1014 29.1398 36.1799 29.106 36.2626 29.0885C36.3453 29.071 36.4306 29.0702 36.5137 29.0861C36.5968 29.1021 36.6761 29.1344 36.7469 29.1812C36.8178 29.2281 36.8788 29.2886 36.9267 29.3593C36.9745 29.43 37.0081 29.5095 37.0257 29.5933C37.0432 29.677 37.0443 29.7634 37.0288 29.8475C37.0133 29.9316 36.9816 30.0117 36.9355 30.0832C35.1737 32.7975 31.9803 41.8497 31.4288 45.052C31.4054 45.1894 31.339 45.3155 31.2394 45.4116C31.1398 45.5077 31.0122 45.5688 30.8755 45.5859C30.8122 45.5934 30.7482 45.5917 30.6855 45.5807C30.6021 45.5659 30.5225 45.5346 30.451 45.4886C30.3796 45.4427 30.3177 45.3829 30.269 45.3129C30.2203 45.2428 30.1856 45.1637 30.1671 45.0801C30.1485 44.9966 30.1464 44.9102 30.1608 44.826Z" fill="#2664eb"/>
<path d="M62.2273 13.6014C62.4039 13.5603 62.5572 13.4548 62.6534 13.308C62.7496 13.1613 62.7808 12.9854 62.7402 12.8191C62.6996 12.6527 62.5906 12.5095 62.437 12.4209C62.2834 12.3324 62.0979 12.3057 61.9213 12.3468C58.5399 13.1345 55.3472 14.5484 52.5292 16.5061C52.4047 16.5919 52.3135 16.7142 52.2703 16.8536C52.2271 16.9929 52.2343 17.1412 52.2908 17.2746C52.3473 17.4081 52.4499 17.519 52.582 17.5896C52.7142 17.6603 52.8683 17.6866 53.0197 17.6643C53.1307 17.6485 53.2363 17.6071 53.3272 17.5439C55.9973 15.6881 59.0229 14.3479 62.2273 13.6014Z" fill="#2664eb"/>
<path d="M104.019 33.0156C106.829 36.9105 108.547 41.4734 108.997 46.2395C109.005 46.3306 108.996 46.4225 108.968 46.5098C108.941 46.5971 108.896 46.6783 108.837 46.7486C108.778 46.8189 108.706 46.8769 108.624 46.9195C108.542 46.962 108.453 46.9882 108.361 46.9965C108.34 46.9986 108.317 47 108.296 47C108.12 47.0007 107.95 46.9361 107.82 46.8189C107.69 46.7017 107.609 46.5405 107.593 46.367C107.166 41.8466 105.537 37.5191 102.872 33.8248C102.687 33.5683 102.503 33.3107 102.318 33.0527C99.8386 29.5949 97.3127 26.0719 93.4242 24.3357C93.3386 24.299 93.2612 24.2459 93.1965 24.1793C93.1318 24.1128 93.0812 24.0341 93.0475 23.948C93.0138 23.8619 92.9977 23.77 93.0002 23.6776C93.0028 23.5853 93.0238 23.4944 93.0621 23.4101C93.1005 23.3259 93.1553 23.2501 93.2235 23.1871C93.2917 23.1241 93.3719 23.0752 93.4594 23.0432C93.5469 23.0112 93.6399 22.9967 93.7331 23.0006C93.8263 23.0046 93.9177 23.0268 94.0021 23.0661C98.2107 24.9445 100.955 28.7581 103.641 32.4904C103.767 32.6657 103.893 32.8408 104.019 33.0156Z" fill="#2664eb"/>
<path fill-rule="evenodd" clip-rule="evenodd" d="M50 112C50 123.046 58.9543 132 70 132C81.0457 132 90 123.046 90 112V105.549C90 95.903 96.0493 87.852 102.196 79.6707C108.546 71.2201 115 62.6305 115 52C115 27.1472 94.8528 7 70 7C45.1472 7 25 27.1472 25 52C25 62.6305 31.454 71.2201 37.8035 79.6707C43.9507 87.852 50 95.903 50 105.549V112ZM101.7 78.6661C107.988 70.295 114 62.0737 114 52C114 27.6995 94.3005 8 70 8C45.6995 8 26 27.6995 26 52C26 62.0737 32.0117 70.295 38.2996 78.6661L38.6974 79.1956C44.7677 87.2723 51 95.5646 51 105.549V107H56.5417L51.7439 79.6524C47.022 76.1519 47.7083 69.2214 52.1654 66.7021C54.4518 65.4099 57.1058 64.8679 59.4926 66.5727H79.6649C82.0516 64.8679 84.7057 65.4099 86.992 66.7021C91.4491 69.2214 92.1354 76.1519 87.4135 79.6524L82.6157 107H89V105.549C89 95.5646 95.2323 87.2723 101.303 79.1956L101.7 78.6661ZM89 109H51V112C51 112.675 51.0352 113.343 51.104 114H88.896C88.9648 113.343 89 112.675 89 112V109ZM51.4218 116C51.8012 117.771 52.4274 119.45 53.2626 121H86.7374C87.5726 119.45 88.1988 117.771 88.5782 116H51.4218ZM59.7487 128C57.6977 126.683 55.9164 124.983 54.5062 123H85.4938C84.0836 124.983 82.3023 126.683 80.2513 128H59.7487ZM63.9011 130C65.8154 130.648 67.8667 131 70 131C72.1333 131 74.1846 130.648 76.0989 130H63.9011ZM56.0253 67.5035C55.1332 67.5378 54.1696 67.8667 53.1495 68.4433C49.8965 70.2819 49.325 75.6492 53.2122 78.2406L53.5685 78.4781L58.4973 106.573H80.6601L85.589 78.4782L85.9453 78.2406C89.8325 75.6492 89.2609 70.2819 86.0079 68.4433C84.9879 67.8667 84.0243 67.5378 83.1321 67.5035C82.2534 67.4698 81.4166 67.72 80.6246 68.3536L80.3507 68.5727H58.8067L58.5328 68.3536C57.7408 67.72 56.904 67.4698 56.0253 67.5035ZM86.5697 79.0257C86.5466 79.0414 86.5233 79.0571 86.4999 79.0727L86.4993 79.0764L86.6114 78.997L86.5697 79.0257ZM52.6575 79.0727C52.6015 79.0354 52.5463 78.9976 52.4919 78.9592L52.6581 79.0764L52.6575 79.0727Z" fill="#2664eb"/>
</svg>
