<svg width="140" height="140" viewBox="0 0 140 140" fill="none" xmlns="http://www.w3.org/2000/svg">
<path d="M77.8349 53.2105C77.8349 57.4108 74.4299 60.8158 70.2297 60.8158C66.0294 60.8158 62.6244 57.4108 62.6244 53.2105C62.6244 49.0103 66.0294 45.6053 70.2297 45.6053C74.4299 45.6053 77.8349 49.0103 77.8349 53.2105Z" stroke="#2664EB"/>
<path d="M88.756 91.4211L81.8086 65.9474L70.2297 63.6316L58.6507 65.9474L51.7034 91.4211H59.8086V125H65.0192L70.2297 97.2105L75.4402 125H80.6507V91.4211H88.756Z" stroke="#2664EB"/>
<circle cx="108.423" cy="66.7361" r="6.07818" stroke="#2664EB"/>
<path d="M123.459 97.7475L117.821 77.0732L108.423 75.1938L99.026 77.0732L93.3876 97.7475H99.9658V125H104.195L108.423 102.446L112.652 125H116.881V97.7475H123.459Z" stroke="#2664EB"/>
<circle cx="32.0358" cy="66.7361" r="6.07818" stroke="#2664EB"/>
<path d="M47.0717 97.7475L41.4333 77.0732L32.0359 75.1938L22.6384 77.0732L17 97.7475H23.5782V125H27.807L32.0359 102.446L36.2647 125H40.4935V97.7475H47.0717Z" stroke="#2664EB"/>
<path d="M70.2632 16.618L72.3873 23.1554L72.4995 23.5009H72.8628H79.7365L74.1756 27.5411L73.8817 27.7547L73.9939 28.1002L76.118 34.6375L70.557 30.5972L70.2632 30.3837L69.9693 30.5972L64.4083 34.6375L66.5324 28.1002L66.6446 27.7547L66.3507 27.5411L60.7898 23.5009H67.6635H68.0268L68.139 23.1554L70.2632 16.618Z" stroke="#2664EB"/>
<path d="M98.0526 28.197L99.6568 33.1341L99.769 33.4796H100.132H105.324L101.124 36.531L100.83 36.7445L100.942 37.09L102.546 42.0271L98.3465 38.9758L98.0526 38.7623L97.7587 38.9758L93.5589 42.0271L95.1631 37.09L95.2753 36.7445L94.9814 36.531L90.7816 33.4796H95.9729H96.3361L96.4484 33.1341L98.0526 28.197Z" stroke="#2664EB"/>
<path d="M42.4737 28.197L44.0779 33.1341L44.1902 33.4796H44.5534H49.7447L45.5449 36.531L45.251 36.7445L45.3632 37.09L46.9674 42.0271L42.7676 38.9758L42.4737 38.7623L42.1798 38.9758L37.98 42.0271L39.5842 37.09L39.6965 36.7445L39.4026 36.531L35.2028 33.4796H40.394H40.7573L40.8695 33.1341L42.4737 28.197Z" stroke="#2664EB"/>
</svg>
