<svg width="120" height="120" viewBox="0 0 120 120" fill="none" xmlns="http://www.w3.org/2000/svg">
<circle cx="60" cy="60" r="60" fill="white"/>
<path d="M31.5663 35.7589C30.5789 36.5159 30 37.6892 30 38.9334V48.8528C30 52.1685 33.8024 54.0446 36.4337 52.0272L51 40.8598V84.9597C51 87.1688 52.7909 88.9597 55 88.9597H65C67.2091 88.9597 69 87.1688 69 84.9597V40.8598L83.5663 52.0272C86.1976 54.0446 90 52.1685 90 48.8528V38.9334C90 37.6892 89.4211 36.5159 88.4337 35.7589L62.4337 15.8256C60.9979 14.7248 59.0021 14.7248 57.5663 15.8256L31.5663 35.7589Z" fill="#2664EB"/>
<rect x="30" y="98.9597" width="60" height="6" rx="3" fill="#2664EB"/>
</svg>
