<svg width="140" height="140" viewBox="0 0 140 140" fill="none" xmlns="http://www.w3.org/2000/svg">
<rect x="21.2158" y="24.1359" width="0.271845" height="15.4082" stroke="#2664EB" stroke-width="0.271845"/>
<path d="M17 37.0368C18.6766 38.336 19.1925 38.336 21.256 38.336C26.9307 38.336 26.9307 31.84 21.256 31.84C15.5813 31.84 15.5813 25.344 21.256 25.344C23.3195 25.344 23.8354 25.344 25.512 26.6432" stroke="#2664EB"/>
<rect x="117.956" y="24.1359" width="0.271845" height="15.4082" stroke="#2664EB" stroke-width="0.271845"/>
<path d="M113.741 37.0368C115.417 38.336 115.933 38.336 117.997 38.336C123.671 38.336 123.671 31.84 117.997 31.84C112.322 31.84 112.322 25.344 117.997 25.344C120.06 25.344 120.576 25.344 122.253 26.6432" stroke="#2664EB"/>
<rect x="69.9961" y="41.804" width="1" height="56.68" stroke="#2664EB"/>
<path d="M54.488 89.2608C60.6556 94.04 62.5532 94.04 70.144 94.04C91.0187 94.04 91.0187 70.144 70.144 70.144C49.2694 70.144 49.2694 46.248 70.144 46.248C77.7348 46.248 79.6325 46.248 85.8 51.0272" stroke="#2664EB" stroke-width="2"/>
<circle cx="70.144" cy="70.144" r="40.7" stroke="#2664EB"/>
<circle cx="70.144" cy="70.144" r="45.644" stroke="#2664EB"/>
</svg>
