<svg width="140" height="140" viewBox="0 0 140 140" fill="none" xmlns="http://www.w3.org/2000/svg">
<path d="M113.634 61H114.316L114.111 60.3498C111.218 51.1637 100.697 27 70.1414 27C39.5859 27 29.0652 51.1637 26.1719 60.3498L25.9671 61H26.6488H31.5V105H29.5883H28.9387L29.1049 105.628L32.0166 116.628L32.1151 117H32.5H60.0709H60.5045L60.5659 116.571C61.0164 113.421 63.7258 111 67 111H68.5C71.2615 111 73.5 113.239 73.5 116C73.5 118.761 71.2615 121 68.5 121H29.3991L25.8512 105.389L25.7628 105H25.3636H21C13.5442 105 7.5 98.9558 7.5 91.5V74.5C7.5 68.6414 11.2322 63.6532 16.4503 61.7857L16.7475 61.6794L16.7793 61.3653C18.4598 44.7602 35.4994 18.5 70.1414 18.5C105.169 18.5 122.199 45.348 123.554 61.9128L123.577 62.1987L123.835 62.3228C128.371 64.5002 131.5 69.1351 131.5 74.5V91.5C131.5 98.9558 125.456 105 118 105H107.5V61H113.634Z" stroke="#2664EB"/>
<mask id="path-2-inside-1_256_64" fill="white">
<path fill-rule="evenodd" clip-rule="evenodd" d="M73.1667 47.0833C73.1667 45.9327 72.2339 45 71.0833 45H66.9167C65.7661 45 64.8333 45.9327 64.8333 47.0833V49.5834C62.1734 50.1233 59.6975 51.17 57.5109 52.6183L55.7417 50.8492C54.9281 50.0356 53.609 50.0356 52.7954 50.8492L49.8492 53.7955C49.0356 54.6091 49.0356 55.9282 49.8492 56.7417L51.6183 58.5109C50.17 60.6976 49.1233 63.1734 48.5834 65.8333H46.0833C44.9327 65.8333 44 66.7661 44 67.9167V72.0833C44 73.2339 44.9327 74.1667 46.0833 74.1667H48.5834C49.1233 76.8266 50.17 79.3024 51.6183 81.4891L49.8492 83.2582C49.0356 84.0718 49.0356 85.3909 49.8492 86.2045L52.7954 89.1508C53.609 89.9644 54.9281 89.9644 55.7417 89.1508L57.5108 87.3817C59.6975 88.83 62.1734 89.8767 64.8333 90.4166V92.9167C64.8333 94.0673 65.7661 95 66.9167 95H71.0833C72.2339 95 73.1667 94.0673 73.1667 92.9167V90.4166C75.8266 89.8767 78.3024 88.83 80.4891 87.3817L82.2582 89.1508C83.0718 89.9644 84.3909 89.9644 85.2045 89.1508L88.1508 86.2045C88.9644 85.3909 88.9644 84.0718 88.1508 83.2582L86.3817 81.4891C87.83 79.3025 88.8767 76.8266 89.4166 74.1667H91.9167C93.0673 74.1667 94 73.2339 94 72.0833V67.9167C94 66.7661 93.0673 65.8333 91.9167 65.8333H89.4166C88.8767 63.1734 87.83 60.6975 86.3817 58.5109L88.1508 56.7417C88.9644 55.9282 88.9644 54.6091 88.1508 53.7955L85.2045 50.8492C84.3909 50.0356 83.0718 50.0356 82.2582 50.8492L80.4891 52.6183C78.3024 51.17 75.8266 50.1233 73.1667 49.5834V47.0833ZM69.0002 63.75C65.5484 63.75 62.7502 66.5482 62.7502 70C62.7502 73.4518 65.5484 76.25 69.0002 76.25C72.4519 76.25 75.2502 73.4518 75.2502 70C75.2502 66.5482 72.4519 63.75 69.0002 63.75Z"/>
</mask>
<path d="M64.8333 49.5834L65.0323 50.5634L65.8333 50.4008V49.5834H64.8333ZM57.5109 52.6183L56.8037 53.3254L57.3817 53.9034L58.063 53.4521L57.5109 52.6183ZM55.7417 50.8492L55.0346 51.5563L55.0346 51.5563L55.7417 50.8492ZM49.8492 53.7955L50.5563 54.5026L50.5563 54.5026L49.8492 53.7955ZM49.8492 56.7417L50.5563 56.0346L50.5563 56.0346L49.8492 56.7417ZM51.6183 58.5109L52.452 59.0631L52.9033 58.3817L52.3254 57.8038L51.6183 58.5109ZM48.5834 65.8333V66.8333H49.4008L49.5634 66.0323L48.5834 65.8333ZM48.5834 74.1667L49.5634 73.9677L49.4008 73.1667H48.5834V74.1667ZM51.6183 81.4891L52.3254 82.1962L52.9033 81.6183L52.452 80.9369L51.6183 81.4891ZM49.8492 83.2582L49.142 82.5511L49.142 82.5511L49.8492 83.2582ZM49.8492 86.2045L49.142 86.9116L49.142 86.9116L49.8492 86.2045ZM52.7954 89.1508L53.5025 88.4437L53.5025 88.4437L52.7954 89.1508ZM55.7417 89.1508L55.0346 88.4437L55.0346 88.4437L55.7417 89.1508ZM57.5108 87.3817L58.063 86.5479L57.3817 86.0966L56.8037 86.6746L57.5108 87.3817ZM64.8333 90.4166H65.8333V89.5992L65.0323 89.4366L64.8333 90.4166ZM73.1667 90.4166L72.9677 89.4366L72.1667 89.5992V90.4166H73.1667ZM80.4891 87.3817L81.1962 86.6746L80.6183 86.0967L79.9369 86.548L80.4891 87.3817ZM85.2045 89.1508L84.4974 88.4437L84.4974 88.4437L85.2045 89.1508ZM88.1508 86.2045L88.8579 86.9116L88.8579 86.9116L88.1508 86.2045ZM88.1508 83.2582L88.8579 82.5511L88.8579 82.5511L88.1508 83.2582ZM86.3817 81.4891L85.5479 80.937L85.0967 81.6183L85.6746 82.1963L86.3817 81.4891ZM89.4166 74.1667V73.1667H88.5992L88.4366 73.9677L89.4166 74.1667ZM89.4166 65.8333L88.4366 66.0323L88.5992 66.8333H89.4166V65.8333ZM86.3817 58.5109L85.6746 57.8037L85.0966 58.3817L85.5479 59.063L86.3817 58.5109ZM88.1508 56.7417L87.4437 56.0346L87.4437 56.0346L88.1508 56.7417ZM88.1508 53.7955L87.4437 54.5026L87.4437 54.5026L88.1508 53.7955ZM85.2045 50.8492L85.9116 50.1421L85.9116 50.1421L85.2045 50.8492ZM82.2582 50.8492L81.5511 50.1421L81.5511 50.1421L82.2582 50.8492ZM80.4891 52.6183L79.9369 53.452L80.6183 53.9033L81.1962 53.3254L80.4891 52.6183ZM73.1667 49.5834H72.1667V50.4008L72.9677 50.5634L73.1667 49.5834ZM71.0833 46C71.6816 46 72.1667 46.485 72.1667 47.0833H74.1667C74.1667 45.3805 72.7862 44 71.0833 44V46ZM66.9167 46H71.0833V44H66.9167V46ZM65.8333 47.0833C65.8333 46.485 66.3184 46 66.9167 46V44C65.2138 44 63.8333 45.3805 63.8333 47.0833H65.8333ZM65.8333 49.5834V47.0833H63.8333V49.5834H65.8333ZM58.063 53.4521C60.1449 52.0732 62.5012 51.0772 65.0323 50.5634L64.6344 48.6034C61.8457 49.1695 59.2502 50.2669 56.9587 51.7846L58.063 53.4521ZM55.0346 51.5563L56.8037 53.3254L58.218 51.9112L56.4488 50.1421L55.0346 51.5563ZM53.5025 51.5563C53.9256 51.1332 54.6115 51.1332 55.0346 51.5563L56.4488 50.1421C55.2447 48.938 53.2924 48.938 52.0883 50.1421L53.5025 51.5563ZM50.5563 54.5026L53.5025 51.5563L52.0883 50.1421L49.142 53.0884L50.5563 54.5026ZM50.5563 56.0346C50.1332 55.6116 50.1332 54.9256 50.5563 54.5026L49.142 53.0884C47.9379 54.2925 47.9379 56.2447 49.142 57.4489L50.5563 56.0346ZM52.3254 57.8038L50.5563 56.0346L49.142 57.4489L50.9112 59.218L52.3254 57.8038ZM49.5634 66.0323C50.0772 63.5012 51.0732 61.1449 52.452 59.0631L50.7846 57.9587C49.2668 60.2503 48.1695 62.8457 47.6034 65.6344L49.5634 66.0323ZM46.0833 66.8333H48.5834V64.8333H46.0833V66.8333ZM45 67.9167C45 67.3184 45.485 66.8333 46.0833 66.8333V64.8333C44.3805 64.8333 43 66.2138 43 67.9167H45ZM45 72.0833V67.9167H43V72.0833H45ZM46.0833 73.1667C45.485 73.1667 45 72.6816 45 72.0833H43C43 73.7862 44.3805 75.1667 46.0833 75.1667V73.1667ZM48.5834 73.1667H46.0833V75.1667H48.5834V73.1667ZM52.452 80.9369C51.0732 78.8551 50.0772 76.4988 49.5634 73.9677L47.6034 74.3656C48.1695 77.1543 49.2668 79.7497 50.7846 82.0413L52.452 80.9369ZM50.5563 83.9654L52.3254 82.1962L50.9112 80.782L49.142 82.5511L50.5563 83.9654ZM50.5563 85.4974C50.1332 85.0744 50.1332 84.3884 50.5563 83.9654L49.142 82.5511C47.9379 83.7553 47.9379 85.7075 49.142 86.9116L50.5563 85.4974ZM53.5025 88.4437L50.5563 85.4974L49.142 86.9116L52.0883 89.8579L53.5025 88.4437ZM55.0346 88.4437C54.6115 88.8668 53.9256 88.8668 53.5025 88.4437L52.0883 89.8579C53.2924 91.062 55.2447 91.062 56.4488 89.8579L55.0346 88.4437ZM56.8037 86.6746L55.0346 88.4437L56.4488 89.8579L58.218 88.0888L56.8037 86.6746ZM65.0323 89.4366C62.5012 88.9228 60.1448 87.9268 58.063 86.5479L56.9587 88.2154C59.2502 89.7331 61.8457 90.8305 64.6344 91.3966L65.0323 89.4366ZM65.8333 92.9167V90.4166H63.8333V92.9167H65.8333ZM66.9167 94C66.3184 94 65.8333 93.515 65.8333 92.9167H63.8333C63.8333 94.6195 65.2138 96 66.9167 96V94ZM71.0833 94H66.9167V96H71.0833V94ZM72.1667 92.9167C72.1667 93.515 71.6816 94 71.0833 94V96C72.7862 96 74.1667 94.6195 74.1667 92.9167H72.1667ZM72.1667 90.4166V92.9167H74.1667V90.4166H72.1667ZM79.9369 86.548C77.8551 87.9268 75.4988 88.9228 72.9677 89.4366L73.3656 91.3966C76.1543 90.8305 78.7497 89.7332 81.0413 88.2154L79.9369 86.548ZM82.9653 88.4437L81.1962 86.6746L79.782 88.0888L81.5511 89.8579L82.9653 88.4437ZM84.4974 88.4437C84.0743 88.8668 83.3884 88.8668 82.9653 88.4437L81.5511 89.8579C82.7552 91.062 84.7075 91.062 85.9116 89.8579L84.4974 88.4437ZM87.4437 85.4974L84.4974 88.4437L85.9116 89.8579L88.8579 86.9116L87.4437 85.4974ZM87.4437 83.9654C87.8667 84.3884 87.8667 85.0744 87.4437 85.4974L88.8579 86.9116C90.062 85.7075 90.062 83.7553 88.8579 82.5511L87.4437 83.9654ZM85.6746 82.1963L87.4437 83.9654L88.8579 82.5511L87.0888 80.782L85.6746 82.1963ZM88.4366 73.9677C87.9228 76.4988 86.9268 78.8552 85.5479 80.937L87.2154 82.0413C88.7332 79.7498 89.8305 77.1543 90.3966 74.3656L88.4366 73.9677ZM91.9167 73.1667H89.4166V75.1667H91.9167V73.1667ZM93 72.0833C93 72.6816 92.515 73.1667 91.9167 73.1667V75.1667C93.6195 75.1667 95 73.7862 95 72.0833H93ZM93 67.9167V72.0833H95V67.9167H93ZM91.9167 66.8333C92.515 66.8333 93 67.3184 93 67.9167H95C95 66.2138 93.6195 64.8333 91.9167 64.8333V66.8333ZM89.4166 66.8333H91.9167V64.8333H89.4166V66.8333ZM85.5479 59.063C86.9268 61.1448 87.9228 63.5012 88.4366 66.0323L90.3966 65.6344C89.8305 62.8457 88.7331 60.2502 87.2154 57.9587L85.5479 59.063ZM87.4437 56.0346L85.6746 57.8037L87.0888 59.218L88.8579 57.4489L87.4437 56.0346ZM87.4437 54.5026C87.8667 54.9256 87.8667 55.6116 87.4437 56.0346L88.8579 57.4489C90.062 56.2447 90.062 54.2925 88.8579 53.0884L87.4437 54.5026ZM84.4974 51.5563L87.4437 54.5026L88.8579 53.0884L85.9116 50.1421L84.4974 51.5563ZM82.9653 51.5563C83.3884 51.1332 84.0743 51.1332 84.4974 51.5563L85.9116 50.1421C84.7075 48.938 82.7552 48.938 81.5511 50.1421L82.9653 51.5563ZM81.1962 53.3254L82.9653 51.5563L81.5511 50.1421L79.782 51.9112L81.1962 53.3254ZM72.9677 50.5634C75.4988 51.0772 77.8551 52.0732 79.9369 53.452L81.0413 51.7846C78.7497 50.2668 76.1543 49.1695 73.3656 48.6034L72.9677 50.5634ZM72.1667 47.0833V49.5834H74.1667V47.0833H72.1667ZM63.7502 70C63.7502 67.1005 66.1007 64.75 69.0002 64.75V62.75C64.9961 62.75 61.7502 65.9959 61.7502 70H63.7502ZM69.0002 75.25C66.1007 75.25 63.7502 72.8995 63.7502 70H61.7502C61.7502 74.0041 64.9961 77.25 69.0002 77.25V75.25ZM74.2502 70C74.2502 72.8995 71.8996 75.25 69.0002 75.25V77.25C73.0042 77.25 76.2502 74.0041 76.2502 70H74.2502ZM69.0002 64.75C71.8996 64.75 74.2502 67.1005 74.2502 70H76.2502C76.2502 65.9959 73.0042 62.75 69.0002 62.75V64.75Z" fill="#2664EB" mask="url(#path-2-inside-1_256_64)"/>
</svg>
