<svg width="140" height="140" viewBox="0 0 140 140" fill="none" xmlns="http://www.w3.org/2000/svg">
<path fill-rule="evenodd" clip-rule="evenodd" d="M22 24H118C122.971 24 127 28.0294 127 33V104H13V33C13 28.0294 17.0294 24 22 24ZM12 104V33C12 27.4772 16.4772 23 22 23H118C123.523 23 128 27.4772 128 33V104H134H135C135 104.337 134.986 104.67 134.959 105C134.451 111.16 129.291 116 123 116H17C10.7093 116 5.54922 111.16 5.04107 105C5.01387 104.67 5 104.337 5 104H6H12ZM128 105H127H13H12H6.04484C6.55007 110.606 11.262 115 17 115H123C128.738 115 133.45 110.606 133.955 105H128ZM121 29H55V38.5H124V32C124 30.3431 122.657 29 121 29ZM19 29H54V38.5H16V32C16 30.3431 17.3431 29 19 29ZM124 39.5H16V96C16 97.6569 17.3431 99 19 99H121C122.657 99 124 97.6569 124 96V39.5ZM19 28C16.7909 28 15 29.7909 15 32V96C15 98.2091 16.7909 100 19 100H121C123.209 100 125 98.2091 125 96V32C125 29.7909 123.209 28 121 28H19ZM42 68C42 67.4477 42.4477 67 43 67H83C83.5523 67 84 67.4477 84 68C84 68.5523 83.5523 69 83 69H43C42.4477 69 42 68.5523 42 68ZM43 74.5C42.7239 74.5 42.5 74.7239 42.5 75C42.5 75.2761 42.7239 75.5 43 75.5H113C113.276 75.5 113.5 75.2761 113.5 75C113.5 74.7239 113.276 74.5 113 74.5H43ZM42.5 83C42.5 82.7239 42.7239 82.5 43 82.5H113C113.276 82.5 113.5 82.7239 113.5 83C113.5 83.2761 113.276 83.5 113 83.5H43C42.7239 83.5 42.5 83.2761 42.5 83ZM43 90.5C42.7239 90.5 42.5 90.7239 42.5 91C42.5 91.2761 42.7239 91.5 43 91.5H113C113.276 91.5 113.5 91.2761 113.5 91C113.5 90.7239 113.276 90.5 113 90.5H43ZM102.5 57.5V47H101.5V57.5H102.5ZM23 33H27V35H23V33ZM37 33H33V35H37V33ZM43 33H47V35H43V33ZM109.143 53.4282C110.179 54.4649 111.78 54.5934 112.957 53.8139L115.357 56.2138C115.593 56.4505 115.977 56.4505 116.214 56.2138C116.451 55.9771 116.451 55.5934 116.214 55.3567L113.814 52.9568C114.593 51.7802 114.465 50.1794 113.428 49.1427C112.245 47.9593 110.326 47.9593 109.143 49.1427C107.959 50.3262 107.959 52.2448 109.143 53.4282ZM112.785 52.7854C113.614 51.957 113.614 50.614 112.785 49.7856C111.957 48.9572 110.614 48.9572 109.786 49.7856C108.957 50.614 108.957 51.957 109.786 52.7854C110.614 53.6138 111.957 53.6138 112.785 52.7854ZM120 46H20C19.4477 46 19 46.4477 19 47V58C19 58.5523 19.4477 59 20 59H120C120.552 59 121 58.5523 121 58V47C121 46.4477 120.552 46 120 46ZM20 45C18.8954 45 18 45.8954 18 47V58C18 59.1046 18.8954 60 20 60H120C121.105 60 122 59.1046 122 58V47C122 45.8954 121.105 45 120 45H20ZM21 67H37C37.5523 67 38 67.4477 38 68V90C38 90.5523 37.5523 91 37 91H21C20.4477 91 20 90.5523 20 90V68C20 67.4477 20.4477 67 21 67ZM19 68C19 66.8954 19.8954 66 21 66H37C38.1046 66 39 66.8954 39 68V90C39 91.1046 38.1046 92 37 92H21C19.8954 92 19 91.1046 19 90V68Z" fill="#2664eb"/>
</svg>
