<svg width="40" height="40" viewBox="0 0 40 40" fill="none" xmlns="http://www.w3.org/2000/svg">
<path d="M10.5337 34.5946L11.1873 34.9189C13.8523 36.4921 16.8991 37.3144 19.9999 37.2973C29.5456 37.2757 37.3886 29.4736 37.3886 20.0001C37.3886 15.4218 35.5564 11.025 32.2983 7.78398C29.0445 4.50941 24.599 2.66402 19.9661 2.66402C10.464 2.66402 2.64594 10.424 2.64594 19.8531C2.64594 19.9277 2.64594 20.0012 2.64703 20.0758C2.67565 23.2816 3.57913 26.4199 5.26141 29.1568L5.69712 29.8055L3.95422 36.1838L10.5337 34.5946Z" fill="#00E676"/>
<path d="M34.2373 5.83808C30.5281 2.08241 25.4399 -0.0245741 20.1415 0.000216311H20.1077C9.19605 0.000250177 0.216796 8.91158 0.216796 19.7407C0.216796 19.7915 0.217888 19.8412 0.217888 19.8921C0.258988 23.335 1.15709 26.7145 2.83227 29.7298L0 40L10.5555 37.2973C13.4715 38.8861 16.7497 39.705 20.0761 39.6757C31.0281 39.6162 40.0063 30.6541 39.9998 19.7839C40.0259 14.5612 37.9508 9.53859 34.2373 5.83808ZM20.1415 36.3243C17.1929 36.3396 14.2962 35.5546 11.7646 34.0541L11.111 33.7298L4.82567 35.3514L6.45964 29.1893L6.02393 28.5406C4.40542 25.947 3.54794 22.9568 3.5479 19.9061C3.5479 10.9094 11.0076 3.50616 20.0729 3.50616C29.1382 3.50616 36.5978 10.9094 36.5978 19.9061C36.5978 25.5709 33.6403 30.8487 28.7907 33.8379C26.2258 35.4685 23.242 36.3317 20.196 36.3243M29.7711 24.3244L28.5728 23.7839C28.5728 23.7839 26.8299 23.0271 25.7406 22.4866C25.6317 22.4866 25.5227 22.3785 25.4138 22.3785C25.1452 22.3851 24.8828 22.4595 24.6513 22.5947C24.4192 22.7298 24.5423 22.7028 23.0173 24.4325C22.9138 24.6347 22.7014 24.7612 22.4727 24.7569H22.3637C22.1999 24.7297 22.0482 24.6543 21.928 24.5407L21.3833 24.3244C20.2147 23.8334 19.1446 23.1376 18.2243 22.2704C18.0064 22.0542 17.6796 21.8379 17.4618 21.6217C16.6553 20.8551 15.9589 19.982 15.3921 19.0272L15.2831 18.811C15.1885 18.6788 15.115 18.5329 15.0653 18.3785C15.0368 18.1913 15.0753 18 15.1742 17.838C15.2733 17.6758 15.6099 17.2974 15.9367 16.9731C16.2635 16.6488 16.2635 16.4326 16.4814 16.2164C16.5933 16.0621 16.6707 15.8857 16.7083 15.6992C16.7459 15.5128 16.7428 15.3205 16.6992 15.1353C16.1916 13.7364 15.6098 12.3652 14.9563 11.0272C14.7812 10.7569 14.5083 10.5634 14.1938 10.4867H12.9956C12.7777 10.4867 12.5598 10.5948 12.342 10.5948L12.233 10.7029C12.0152 10.811 11.7973 11.0272 11.5794 11.1353C11.3616 11.2434 11.2527 11.5678 11.0348 11.784C10.2733 12.739 9.85191 13.9175 9.83654 15.1353C9.84861 15.9919 10.0338 16.8375 10.3812 17.6218L10.4901 17.9461C11.4682 20.0215 12.8362 21.8927 14.5206 23.4596L14.9563 23.892C15.2734 24.1526 15.5652 24.4422 15.8278 24.7569C18.0848 26.706 20.7657 28.1114 23.66 28.865C23.9868 28.9731 24.4225 28.9731 24.7493 29.0812H25.8386C26.408 29.0533 26.9649 28.9059 27.4726 28.6487C27.7395 28.5287 27.9944 28.3839 28.2351 28.2163L28.453 28.0001C28.6709 27.7839 28.8887 27.6758 29.1066 27.4596C29.3195 27.2713 29.503 27.0527 29.6512 26.8109C29.8604 26.3266 30.0074 25.8185 30.087 25.2974V24.5407C29.9891 24.4534 29.879 24.3805 29.7602 24.3244" fill="white"/>
</svg>
